<?xml version="1.0" encoding="utf-8"?>
<!-- Generator: Adobe Illustrator 27.5.0, SVG Export Plug-In . SVG Version: 6.00 Build 0)  -->
<svg version="1.1" id="Layer_1" xmlns="http://www.w3.org/2000/svg" xmlns:xlink="http://www.w3.org/1999/xlink" x="0px" y="0px"
	 viewBox="0 0 144 144" style="enable-background:new 0 0 144 144;" xml:space="preserve">
<g>
	<linearGradient id="SVGID_1_" gradientUnits="userSpaceOnUse" x1="72.0005" y1="-1.2548" x2="72.0005" y2="156.7506">
		<stop  offset="0" style="stop-color:#F3F4F4"/>
		<stop  offset="1" style="stop-color:#FFFFFF"/>
	</linearGradient>
	<rect x="0.001" style="fill:url(#SVGID_1_);" width="143.999" height="144"/>
	<g>
		<g>
			<g>
				
					<linearGradient id="SVGID_00000146482533948005166050000004660024410089868703_" gradientUnits="userSpaceOnUse" x1="-649.1428" y1="429.4171" x2="-648.2744" y2="428.5488" gradientTransform="matrix(329 0 0 -74 213461.6875 31840.0195)">
					<stop  offset="0" style="stop-color:#FFFFFF"/>
					<stop  offset="1" style="stop-color:#868686"/>
				</linearGradient>
				<path style="fill:url(#SVGID_00000146482533948005166050000004660024410089868703_);" d="M33.517,122.473
					c16.495-14.798,38.105-29.057,65.017-41.121C85.487,84.639,73,88.38,61.126,92.465
					C49.845,102.195,40.653,112.294,33.517,122.473z"/>
				
					<linearGradient id="SVGID_00000164487310638609008820000011991171744623152513_" gradientUnits="userSpaceOnUse" x1="-652.27" y1="431.3374" x2="-651.9731" y2="431.0405" gradientTransform="matrix(140 0 0 -154 91367.7891 66480.0391)">
					<stop  offset="0" style="stop-color:#696969"/>
					<stop  offset="1" style="stop-color:#595959"/>
				</linearGradient>
				<path style="fill:url(#SVGID_00000164487310638609008820000011991171744623152513_);" d="M61.126,92.465
					C73,88.38,85.487,84.639,98.533,81.352C88.191,73.469,76.291,65.73,62.921,58.26C61.795,69.63,61.219,81.038,61.126,92.465z"/>
				
					<linearGradient id="SVGID_00000169545029979134636430000016511402350508490941_" gradientUnits="userSpaceOnUse" x1="-648.9225" y1="429.6026" x2="-648.5819" y2="429.262" gradientTransform="matrix(455 0 0 -74 295312.9063 31840.0195)">
					<stop  offset="0" style="stop-color:#414141"/>
					<stop  offset="1" style="stop-color:#595959"/>
				</linearGradient>
				<path style="fill:url(#SVGID_00000169545029979134636430000016511402350508490941_);" d="M144,39.656
					c-18.107,12.8-33.338,26.849-45.467,41.695c13.134-9.396,28.436-18.061,45.467-25.697V39.656z"/>
				
					<linearGradient id="SVGID_00000068643257143932395980000013016942048780970113_" gradientUnits="userSpaceOnUse" x1="-654.1944" y1="431.4634" x2="-653.8029" y2="431.072" gradientTransform="matrix(115 0 0 -154 75299.9766 66480.0391)">
					<stop  offset="0" style="stop-color:#FFFFFF"/>
					<stop  offset="1" style="stop-color:#808080"/>
				</linearGradient>
				<path style="fill:url(#SVGID_00000068643257143932395980000013016942048780970113_);" d="M62.921,58.26
					c13.37,7.471,25.271,15.209,35.612,23.092c2.18-8.48,4.643-16.905,7.399-25.269C91.618,56.376,77.242,57.103,62.921,58.26z"/>
				
					<linearGradient id="SVGID_00000099623294006570485170000010896772163566624170_" gradientUnits="userSpaceOnUse" x1="-650.2752" y1="429.5819" x2="-650.0583" y2="429.3651" gradientTransform="matrix(255 0 0 -74 165912.9375 31840.0195)">
					<stop  offset="0" style="stop-color:#505050"/>
					<stop  offset="1" style="stop-color:#CCCCCC"/>
				</linearGradient>
				<path style="fill:url(#SVGID_00000099623294006570485170000010896772163566624170_);" d="M144,37.097
					c-13.747,5.74-26.49,12.111-38.067,18.986c-2.757,8.363-5.22,16.788-7.399,25.269C110.662,66.505,125.893,52.456,144,39.656
					V37.097z"/>
				
					<linearGradient id="SVGID_00000054263234058163007800000004045231788898263711_" gradientUnits="userSpaceOnUse" x1="-652.197" y1="431.415" x2="-652.0533" y2="431.2713" gradientTransform="matrix(173 0 0 -101 112940.9609 43602.0234)">
					<stop  offset="0" style="stop-color:#F9F9F9"/>
					<stop  offset="1" style="stop-color:#D8D8D8"/>
				</linearGradient>
				<path style="fill:url(#SVGID_00000054263234058163007800000004045231788898263711_);" d="M144,22.298
					c-2.396-2.696-4.889-5.394-7.496-8.09c-11.888,13.45-22.099,27.452-30.571,41.875c11.577-6.875,24.32-13.246,38.067-18.986
					V22.298z"/>
				
					<linearGradient id="SVGID_00000028283610186611210270000006096147826759599504_" gradientUnits="userSpaceOnUse" x1="-653.8848" y1="430.8801" x2="-653.6958" y2="430.6912" gradientTransform="matrix(107 0 0 -97 70016.9766 41861.0234)">
					<stop  offset="0" style="stop-color:#868686"/>
					<stop  offset="1" style="stop-color:#D1D1D1"/>
				</linearGradient>
				<path style="fill:url(#SVGID_00000028283610186611210270000006096147826759599504_);" d="M61.126,92.465
					c0.093-11.427,0.669-22.835,1.795-34.205c-3.867,2.279-7.576,4.616-11.165,6.989C55.063,74.318,58.213,83.39,61.126,92.465z"/>
				
					<linearGradient id="SVGID_00000071538258041098481700000014454469521423207611_" gradientUnits="userSpaceOnUse" x1="-662.9241" y1="432.2986" x2="-662.0141" y2="431.3885" gradientTransform="matrix(51 0 0 -106 33840.9844 45850.0234)">
					<stop  offset="0" style="stop-color:#FFFFFF"/>
					<stop  offset="1" style="stop-color:#FFFFFF"/>
				</linearGradient>
				<path style="fill:url(#SVGID_00000071538258041098481700000014454469521423207611_);" d="M51.756,65.249
					c3.589-2.373,7.298-4.71,11.165-6.989c-11.509-3.721-23.672-7.22-36.475-10.429C35.505,53.527,43.966,59.339,51.756,65.249z"/>
				
					<linearGradient id="SVGID_00000000184167966007850680000003238604704706241676_" gradientUnits="userSpaceOnUse" x1="-650.2082" y1="426.0111" x2="-649.6115" y2="425.4144" gradientTransform="matrix(189 0 0 -34 122881.9609 14582.0039)">
					<stop  offset="0" style="stop-color:#FFFFFF"/>
					<stop  offset="1" style="stop-color:#F0F0F0"/>
				</linearGradient>
				<path style="fill:url(#SVGID_00000000184167966007850680000003238604704706241676_);" d="M33.517,122.473
					c7.137-10.179,16.328-20.277,27.609-30.008c-6.541,2.298-12.884,4.698-19.029,7.177
					C38.439,107.24,35.561,114.868,33.517,122.473z"/>
				
					<linearGradient id="SVGID_00000125571013086003442170000008766729283363572880_" gradientUnits="userSpaceOnUse" x1="-654.0381" y1="430.2677" x2="-653.8119" y2="430.0415" gradientTransform="matrix(96 0 0 -80 62821.9805 34500.0195)">
					<stop  offset="0" style="stop-color:#F8F8F8"/>
					<stop  offset="1" style="stop-color:#A7A7A7"/>
				</linearGradient>
				<path style="fill:url(#SVGID_00000125571013086003442170000008766729283363572880_);" d="M42.097,99.642
					c6.146-2.479,12.488-4.879,19.029-7.177c-4.142-5.793-8.646-11.557-13.451-17.294C45.206,83.301,43.366,91.468,42.097,99.642z"
					/>
				
					<linearGradient id="SVGID_00000179625373541693806790000001221167280145898155_" gradientUnits="userSpaceOnUse" x1="-659.5203" y1="430.8414" x2="-659.3005" y2="430.6217" gradientTransform="matrix(59 0 0 -97 38960.9219 41861.0234)">
					<stop  offset="0" style="stop-color:#787878"/>
					<stop  offset="1" style="stop-color:#505050"/>
				</linearGradient>
				<path style="fill:url(#SVGID_00000179625373541693806790000001221167280145898155_);" d="M61.126,92.465
					c-2.913-9.075-6.063-18.146-9.37-27.216c-1.47,3.296-2.83,6.604-4.081,9.922C52.48,80.908,56.984,86.672,61.126,92.465z"/>
				
					<linearGradient id="SVGID_00000116921103111238446780000014025383477932528265_" gradientUnits="userSpaceOnUse" x1="-665.896" y1="432.2054" x2="-665.499" y2="431.8084" gradientTransform="matrix(41 0 0 -118 27332.9961 51034.2109)">
					<stop  offset="0" style="stop-color:#FFFFFF"/>
					<stop  offset="1" style="stop-color:#8F8F8F"/>
				</linearGradient>
				<path style="fill:url(#SVGID_00000116921103111238446780000014025383477932528265_);" d="M26.446,47.831
					c9.059,5.696,17.52,11.508,25.31,17.418c-1.47,3.296-2.83,6.604-4.081,9.922C41.229,66.017,34.154,56.899,26.446,47.831z"/>
				
					<linearGradient id="SVGID_00000106133986870003380750000012441792632257901493_" gradientUnits="userSpaceOnUse" x1="-654.111" y1="431.2958" x2="-653.8151" y2="430.9999" gradientTransform="matrix(96 0 0 -104 62821.9805 44926.0234)">
					<stop  offset="0" style="stop-color:#FFFFFF"/>
					<stop  offset="1" style="stop-color:#C0C0C0"/>
				</linearGradient>
				<path style="fill:url(#SVGID_00000106133986870003380750000012441792632257901493_);" d="M42.097,99.642
					c1.27-8.174,3.109-16.341,5.578-24.471c-9.691,1.527-19.273,3.252-28.725,5.158C27.298,86.649,35.032,93.095,42.097,99.642z"/>
				
					<linearGradient id="SVGID_00000168110250761285921400000007132479182358902965_" gradientUnits="userSpaceOnUse" x1="-652.6373" y1="432.0694" x2="-652.3719" y2="431.8042" gradientTransform="matrix(126 0 0 -118 82239.9766 51034.2109)">
					<stop  offset="0" style="stop-color:#7D7D7D"/>
					<stop  offset="1" style="stop-color:#FFFFFF"/>
				</linearGradient>
				<path style="fill:url(#SVGID_00000168110250761285921400000007132479182358902965_);" d="M47.675,75.171
					c-6.445-9.154-13.521-18.271-21.229-27.34c-3.547,10.805-6.032,21.658-7.496,32.498C28.401,78.423,37.983,76.698,47.675,75.171z
					"/>
				
					<linearGradient id="SVGID_00000163759900837489963670000014577952303100327054_" gradientUnits="userSpaceOnUse" x1="-657.3262" y1="431.6713" x2="-657.1511" y2="431.4962" gradientTransform="matrix(101 0 0 -105 66528.9766 45337.0234)">
					<stop  offset="0" style="stop-color:#FFFFFF"/>
					<stop  offset="1" style="stop-color:#DDDDDD"/>
				</linearGradient>
				<path style="fill:url(#SVGID_00000163759900837489963670000014577952303100327054_);" d="M144,11.108
					c-2.528,1.013-5.031,2.043-7.496,3.1c2.607,2.696,5.101,5.394,7.496,8.09V11.108z"/>
			</g>
			<g>
				
					<linearGradient id="SVGID_00000020384023604213808220000003501725144054458801_" gradientUnits="userSpaceOnUse" x1="-651.697" y1="429.1189" x2="-651.4" y2="428.822" gradientTransform="matrix(-140 0 0 172.9383 -91193.8516 -74122.8906)">
					<stop  offset="0" style="stop-color:#696969"/>
					<stop  offset="1" style="stop-color:#595959"/>
				</linearGradient>
				<path style="fill:url(#SVGID_00000020384023604213808220000003501725144054458801_);" d="M0,56.559v5.903
					c9.062,7.342,19.182,14.557,30.342,21.559c1.127-12.768,1.702-25.58,1.794-38.411C21.872,49.574,11.146,53.25,0,56.559z"/>
				
					<linearGradient id="SVGID_00000022525330320505588380000002867228778959256223_" gradientUnits="userSpaceOnUse" x1="-653.521" y1="429.2197" x2="-653.1295" y2="428.8282" gradientTransform="matrix(-115 0 0 172.9383 -75126.0391 -74122.8906)">
					<stop  offset="0" style="stop-color:#FFFFFF"/>
					<stop  offset="1" style="stop-color:#808080"/>
				</linearGradient>
				<path style="fill:url(#SVGID_00000022525330320505588380000002867228778959256223_);" d="M0,62.462v23.573
					c10.114-0.435,20.242-1.098,30.342-2.015C19.182,77.019,9.062,69.804,0,62.462z"/>
				
					<linearGradient id="SVGID_00000165217206113679095850000005730920750254738106_" gradientUnits="userSpaceOnUse" x1="-653.1302" y1="427.3607" x2="-652.9412" y2="427.1717" gradientTransform="matrix(-107 0 0 108.9287 -69842.9766 -46476.1172)">
					<stop  offset="0" style="stop-color:#868686"/>
					<stop  offset="1" style="stop-color:#D1D1D1"/>
				</linearGradient>
				<path style="fill:url(#SVGID_00000165217206113679095850000005730920750254738106_);" d="M32.136,45.609
					c-0.092,12.831-0.667,25.643-1.794,38.411c3.867-2.56,7.576-5.184,11.165-7.848C38.198,65.987,35.051,55.802,32.136,45.609z"/>
				
					<linearGradient id="SVGID_00000076577456939481835020000007012346470938375606_" gradientUnits="userSpaceOnUse" x1="-661.3431" y1="429.076" x2="-660.433" y2="428.1659" gradientTransform="matrix(-51 0 0 119.0355 -33667.0898 -50955.4492)">
					<stop  offset="0" style="stop-color:#FFFFFF"/>
					<stop  offset="1" style="stop-color:#FFFFFF"/>
				</linearGradient>
				<path style="fill:url(#SVGID_00000076577456939481835020000007012346470938375606_);" d="M41.507,76.173
					c-3.589,2.664-7.298,5.288-11.165,7.848c11.509,4.179,23.673,8.108,36.476,11.711C57.758,89.335,49.296,82.81,41.507,76.173z"/>
				
					<linearGradient id="SVGID_00000157305512521276421220000008829756260778116765_" gradientUnits="userSpaceOnUse" x1="-653.1977" y1="425.9994" x2="-652.9715" y2="425.7731" gradientTransform="matrix(-96 0 0 89.8381 -62648.043 -38209.8008)">
					<stop  offset="0" style="stop-color:#F8F8F8"/>
					<stop  offset="1" style="stop-color:#A7A7A7"/>
				</linearGradient>
				<path style="fill:url(#SVGID_00000157305512521276421220000008829756260778116765_);" d="M51.167,37.551
					c-6.146,2.782-12.488,5.479-19.031,8.059c4.144,6.506,8.647,12.977,13.452,19.42C48.057,55.899,49.896,46.729,51.167,37.551z"/>
				
					<linearGradient id="SVGID_00000020374520413763925670000007835760348594354050_" gradientUnits="userSpaceOnUse" x1="-658.1523" y1="427.3219" x2="-657.9327" y2="427.1022" gradientTransform="matrix(-59 0 0 108.9287 -38786.9531 -46476.1172)">
					<stop  offset="0" style="stop-color:#787878"/>
					<stop  offset="1" style="stop-color:#505050"/>
				</linearGradient>
				<path style="fill:url(#SVGID_00000020374520413763925670000007835760348594354050_);" d="M32.136,45.609
					c2.915,10.192,6.063,20.378,9.371,30.563c1.47-3.702,2.831-7.417,4.081-11.144C40.783,58.587,36.279,52.115,32.136,45.609z"/>
				
					<linearGradient id="SVGID_00000041296027614008644870000005426027282948162736_" gradientUnits="userSpaceOnUse" x1="-663.9291" y1="429.3112" x2="-663.5321" y2="428.9142" gradientTransform="matrix(-41 0 0 132.5112 -27159.0898 -56777.2461)">
					<stop  offset="0" style="stop-color:#FFFFFF"/>
					<stop  offset="1" style="stop-color:#8F8F8F"/>
				</linearGradient>
				<path style="fill:url(#SVGID_00000041296027614008644870000005426027282948162736_);" d="M66.817,95.731
					c-9.06-6.396-17.521-12.922-25.311-19.559c1.47-3.702,2.831-7.417,4.081-11.144C52.034,75.311,59.109,85.549,66.817,95.731z"/>
				
					<linearGradient id="SVGID_00000172402326852965055110000008441020884932475557_" gradientUnits="userSpaceOnUse" x1="-653.2707" y1="428.0154" x2="-652.9748" y2="427.7195" gradientTransform="matrix(-96 0 0 116.7895 -62648.043 -49918.2852)">
					<stop  offset="0" style="stop-color:#FFFFFF"/>
					<stop  offset="1" style="stop-color:#C0C0C0"/>
				</linearGradient>
				<path style="fill:url(#SVGID_00000172402326852965055110000008441020884932475557_);" d="M51.167,37.551
					c-1.271,9.178-3.11,18.349-5.579,27.478c9.692-1.716,19.273-3.651,28.726-5.793C65.965,52.14,58.231,44.902,51.167,37.551z"/>
				
					<linearGradient id="SVGID_00000120547936359769282520000000054154474453615272_" gradientUnits="userSpaceOnUse" x1="-651.997" y1="429.1752" x2="-651.7317" y2="428.9099" gradientTransform="matrix(-126 0 0 132.5112 -82066.0391 -56777.2461)">
					<stop  offset="0" style="stop-color:#7D7D7D"/>
					<stop  offset="1" style="stop-color:#FFFFFF"/>
				</linearGradient>
				<path style="fill:url(#SVGID_00000120547936359769282520000000054154474453615272_);" d="M45.588,65.029
					c6.446,10.281,13.522,20.52,21.229,30.702c3.546-12.133,6.031-24.32,7.496-36.495C64.861,61.378,55.28,63.313,45.588,65.029z"/>
			</g>
		</g>
		<g>
			<g>
				
					<linearGradient id="SVGID_00000127729953573111393310000001944127398027911334_" gradientUnits="userSpaceOnUse" x1="-651.7792" y1="429.1826" x2="-651.4681" y2="428.8716" gradientTransform="matrix(145.7238 0 0 163.8445 95096.4688 -70218.5781)">
					<stop  offset="0" style="stop-color:#696969"/>
					<stop  offset="1" style="stop-color:#595959"/>
				</linearGradient>
				<path style="fill:url(#SVGID_00000127729953573111393310000001944127398027911334_);" d="M144,65.112
					c-4.189-1.349-8.32-2.732-12.379-4.16c0.101,12.734,0.729,25.447,1.957,38.119c3.572-2.039,7.044-4.099,10.422-6.172V65.112z"/>
				
					<linearGradient id="SVGID_00000093145356971797290140000006968415951631139492_" gradientUnits="userSpaceOnUse" x1="-653.6465" y1="429.2549" x2="-653.2366" y2="428.8451" gradientTransform="matrix(119.7017 0 0 163.8445 78371.8672 -70218.5781)">
					<stop  offset="0" style="stop-color:#FFFFFF"/>
					<stop  offset="1" style="stop-color:#808080"/>
				</linearGradient>
				<path style="fill:url(#SVGID_00000093145356971797290140000006968415951631139492_);" d="M144,92.899
					c-3.378,2.073-6.85,4.133-10.422,6.172c3.471,0.287,6.946,0.541,10.422,0.78V92.899z"/>
				
					<linearGradient id="SVGID_00000067922424196374344640000014105403013839553463_" gradientUnits="userSpaceOnUse" x1="-653.217" y1="427.4888" x2="-653.0192" y2="427.2909" gradientTransform="matrix(111.3746 0 0 103.2007 72872.7109 -44026.3125)">
					<stop  offset="0" style="stop-color:#868686"/>
					<stop  offset="1" style="stop-color:#D1D1D1"/>
				</linearGradient>
				<path style="fill:url(#SVGID_00000067922424196374344640000014105403013839553463_);" d="M131.621,60.952
					c0.101,12.734,0.729,25.447,1.957,38.119c-4.216-2.541-8.26-5.146-12.173-7.789C125.012,81.175,128.445,71.065,131.621,60.952z"
					/>
				
					<linearGradient id="SVGID_00000124159296523420009000000000136396072437264045_" gradientUnits="userSpaceOnUse" x1="-661.5443" y1="429.2969" x2="-660.5911" y2="428.3437" gradientTransform="matrix(53.0851 0 0 112.7761 35217.8477 -48279.8281)">
					<stop  offset="0" style="stop-color:#FFFFFF"/>
					<stop  offset="1" style="stop-color:#FFFFFF"/>
				</linearGradient>
				<path style="fill:url(#SVGID_00000124159296523420009000000000136396072437264045_);" d="M121.405,91.282
					c3.913,2.644,7.957,5.248,12.173,7.789c-12.547,4.146-25.809,8.046-39.768,11.621
					C103.688,104.345,112.912,97.869,121.405,91.282z"/>
				
					<linearGradient id="SVGID_00000160168266715070208040000001143720706576898483_" gradientUnits="userSpaceOnUse" x1="-653.3047" y1="426.1451" x2="-653.0677" y2="425.9082" gradientTransform="matrix(99.9249 0 0 85.114 65383.8047 -36194.5156)">
					<stop  offset="0" style="stop-color:#F8F8F8"/>
					<stop  offset="1" style="stop-color:#A7A7A7"/>
				</linearGradient>
				<path style="fill:url(#SVGID_00000160168266715070208040000001143720706576898483_);" d="M110.874,52.954
					c6.7,2.762,13.615,5.436,20.747,7.998c-4.517,6.456-9.426,12.88-14.666,19.273C114.264,71.165,112.258,62.063,110.874,52.954z"
					/>
				
					<linearGradient id="SVGID_00000067228634598087776740000000574874980404480942_" gradientUnits="userSpaceOnUse" x1="-658.3153" y1="427.4483" x2="-658.0852" y2="427.2181" gradientTransform="matrix(61.4122 0 0 103.2007 40547.2383 -44026.3125)">
					<stop  offset="0" style="stop-color:#787878"/>
					<stop  offset="1" style="stop-color:#505050"/>
				</linearGradient>
				<path style="fill:url(#SVGID_00000067228634598087776740000000574874980404480942_);" d="M131.621,60.952
					c-3.176,10.113-6.609,20.223-10.216,30.33c-1.603-3.673-3.085-7.359-4.45-11.058C122.195,73.832,127.104,67.408,131.621,60.952z
					"/>
				
					<linearGradient id="SVGID_00000039853178375780334880000000168666893357373878_" gradientUnits="userSpaceOnUse" x1="-664.1866" y1="429.4255" x2="-663.7708" y2="429.0097" gradientTransform="matrix(42.6763 0 0 125.5432 28444.084 -53785.3203)">
					<stop  offset="0" style="stop-color:#FFFFFF"/>
					<stop  offset="1" style="stop-color:#8F8F8F"/>
				</linearGradient>
				<path style="fill:url(#SVGID_00000039853178375780334880000000168666893357373878_);" d="M93.811,110.692
					c9.877-6.348,19.102-12.823,27.595-19.41c-1.603-3.673-3.085-7.359-4.45-11.058C109.928,90.427,102.215,100.586,93.811,110.692z
					"/>
				
					<linearGradient id="SVGID_00000092429345862976937400000009768784585479318407_" gradientUnits="userSpaceOnUse" x1="-653.3811" y1="428.1285" x2="-653.0712" y2="427.8185" gradientTransform="matrix(99.9249 0 0 110.6482 65383.8047 -47287.0586)">
					<stop  offset="0" style="stop-color:#FFFFFF"/>
					<stop  offset="1" style="stop-color:#C0C0C0"/>
				</linearGradient>
				<path style="fill:url(#SVGID_00000092429345862976937400000009768784585479318407_);" d="M110.874,52.954
					c1.384,9.109,3.39,18.211,6.081,27.271c-10.566-1.702-21.012-3.624-31.317-5.748C94.738,67.433,103.171,60.25,110.874,52.954z"
					/>
				
					<linearGradient id="SVGID_00000099651176389282349670000012823409889610613141_" gradientUnits="userSpaceOnUse" x1="-652.0865" y1="429.2831" x2="-651.8087" y2="429.0052" gradientTransform="matrix(131.1514 0 0 125.5432 85595.4141 -53785.3203)">
					<stop  offset="0" style="stop-color:#7D7D7D"/>
					<stop  offset="1" style="stop-color:#FFFFFF"/>
				</linearGradient>
				<path style="fill:url(#SVGID_00000099651176389282349670000012823409889610613141_);" d="M116.955,80.225
					c-7.027,10.202-14.74,20.361-23.145,30.468c-3.867-12.04-6.576-24.137-8.173-36.216
					C95.943,76.601,106.389,78.522,116.955,80.225z"/>
			</g>
			<g>
				
					<linearGradient id="SVGID_00000180327710793426785100000005782468621570016173_" gradientUnits="userSpaceOnUse" x1="-652.1989" y1="431.0317" x2="-651.8879" y2="430.7207" gradientTransform="matrix(-145.7238 0 0 -183.9934 -94928.75 79372.125)">
					<stop  offset="0" style="stop-color:#696969"/>
					<stop  offset="1" style="stop-color:#595959"/>
				</linearGradient>
				<path style="fill:url(#SVGID_00000180327710793426785100000005782468621570016173_);" d="M100.015,113.168
					c-12.945-5.111-26.56-9.794-40.784-13.906c11.276-9.866,24.25-19.551,38.827-28.898C99.287,84.591,99.913,98.87,100.015,113.168
					z"/>
				
					<linearGradient id="SVGID_00000108995530336821809330000010296778157405556153_" gradientUnits="userSpaceOnUse" x1="-648.8739" y1="428.9988" x2="-648.5171" y2="428.6421" gradientTransform="matrix(-473.6024 0 0 -88.4124 -307211.7813 37985.7461)">
					<stop  offset="0" style="stop-color:#414141"/>
					<stop  offset="1" style="stop-color:#595959"/>
				</linearGradient>
				<path style="fill:url(#SVGID_00000108995530336821809330000010296778157405556153_);" d="M0,62.327
					c22.474,10.655,42.471,23.172,59.23,36.935C43.902,77.724,24.041,57.522,0,39.55V62.327z"/>
				
					<linearGradient id="SVGID_00000036934690802688678720000001107324368108201367_" gradientUnits="userSpaceOnUse" x1="-654.1016" y1="431.1638" x2="-653.6916" y2="430.7537" gradientTransform="matrix(-119.7017 0 0 -183.9934 -78204.1406 79372.125)">
					<stop  offset="0" style="stop-color:#FFFFFF"/>
					<stop  offset="1" style="stop-color:#808080"/>
				</linearGradient>
				<path style="fill:url(#SVGID_00000036934690802688678720000001107324368108201367_);" d="M98.058,70.363
					C83.48,79.711,70.507,89.396,59.23,99.262c-2.376-10.614-5.062-21.157-8.066-31.624C66.771,68.004,82.445,68.915,98.058,70.363z
					"/>
				
					<linearGradient id="SVGID_00000058569596884696067290000001900303029136240007_" gradientUnits="userSpaceOnUse" x1="-650.2067" y1="428.972" x2="-649.9794" y2="428.7448" gradientTransform="matrix(-265.4255 0 0 -88.4124 -172521.7031 37985.7461)">
					<stop  offset="0" style="stop-color:#505050"/>
					<stop  offset="1" style="stop-color:#CCCCCC"/>
				</linearGradient>
				<path style="fill:url(#SVGID_00000058569596884696067290000001900303029136240007_);" d="M51.164,67.638
					C35.867,57.213,18.729,47.693,0,39.41v0.14c24.041,17.973,43.902,38.174,59.23,59.712
					C56.854,88.647,54.169,78.104,51.164,67.638z"/>
				
					<linearGradient id="SVGID_00000108995733480501684010000000777230747412203174_" gradientUnits="userSpaceOnUse" x1="-652.1237" y1="430.9601" x2="-651.9731" y2="430.8096" gradientTransform="matrix(-180.073 0 0 -120.671 -117384.1484 52038.3008)">
					<stop  offset="0" style="stop-color:#F9F9F9"/>
					<stop  offset="1" style="stop-color:#D8D8D8"/>
				</linearGradient>
				<path style="fill:url(#SVGID_00000108995733480501684010000000777230747412203174_);" d="M0,39.41
					c18.729,8.283,35.867,17.803,51.164,28.228c-9.239-18.049-20.372-35.573-33.332-52.405C11.282,23.011,5.359,30.793,0,38.544
					V39.41z"/>
				
					<linearGradient id="SVGID_00000010276559504191972940000008800228021499219606_" gradientUnits="userSpaceOnUse" x1="-653.7903" y1="430.3926" x2="-653.5924" y2="430.1947" gradientTransform="matrix(-111.3746 0 0 -115.8919 -72704.9141 49958.625)">
					<stop  offset="0" style="stop-color:#868686"/>
					<stop  offset="1" style="stop-color:#D1D1D1"/>
				</linearGradient>
				<path style="fill:url(#SVGID_00000010276559504191972940000008800228021499219606_);" d="M100.015,113.168
					c-0.101-14.298-0.727-28.577-1.957-42.805c4.216,2.852,8.261,5.775,12.173,8.745
					C106.624,90.458,103.191,101.811,100.015,113.168z"/>
				
					<linearGradient id="SVGID_00000103983150087615331630000008330621664254000305_" gradientUnits="userSpaceOnUse" x1="-662.7477" y1="431.8678" x2="-661.7945" y2="430.9145" gradientTransform="matrix(-53.0851 0 0 -126.6448 -35050.0977 54724.2695)">
					<stop  offset="0" style="stop-color:#FFFFFF"/>
					<stop  offset="1" style="stop-color:#FFFFFF"/>
				</linearGradient>
				<path style="fill:url(#SVGID_00000103983150087615331630000008330621664254000305_);" d="M110.23,79.108
					c-3.912-2.97-7.957-5.894-12.173-8.745c12.548-4.658,25.81-9.038,39.769-13.051C127.949,64.439,118.724,71.713,110.23,79.108z"
					/>
				
					<linearGradient id="SVGID_00000135686241422226223450000003748520155399844747_" gradientUnits="userSpaceOnUse" x1="-653.9434" y1="429.6637" x2="-653.7065" y2="429.4268" gradientTransform="matrix(-99.9249 0 0 -95.581 -65215.9922 41163.5078)">
					<stop  offset="0" style="stop-color:#F8F8F8"/>
					<stop  offset="1" style="stop-color:#A7A7A7"/>
				</linearGradient>
				<path style="fill:url(#SVGID_00000135686241422226223450000003748520155399844747_);" d="M120.763,122.15
					c-6.7-3.102-13.615-6.107-20.748-8.982c4.518-7.25,9.427-14.461,14.666-21.642C117.372,101.701,119.378,111.922,120.763,122.15z
					"/>
				
					<linearGradient id="SVGID_00000176025764937515128670000017393967159420375973_" gradientUnits="userSpaceOnUse" x1="-659.3566" y1="430.352" x2="-659.1265" y2="430.1219" gradientTransform="matrix(-61.4122 0 0 -115.8919 -40379.5508 49958.625)">
					<stop  offset="0" style="stop-color:#787878"/>
					<stop  offset="1" style="stop-color:#505050"/>
				</linearGradient>
				<path style="fill:url(#SVGID_00000176025764937515128670000017393967159420375973_);" d="M100.015,113.168
					c3.177-11.357,6.609-22.71,10.216-34.06c1.604,4.126,3.086,8.266,4.45,12.418C109.441,98.707,104.532,105.918,100.015,113.168z"
					/>
				
					<linearGradient id="SVGID_00000170269797091069080390000014209055580274689664_" gradientUnits="userSpaceOnUse" x1="-665.686" y1="431.818" x2="-665.2701" y2="431.4022" gradientTransform="matrix(-42.6763 0 0 -140.9819 -28276.4375 60918.4922)">
					<stop  offset="0" style="stop-color:#FFFFFF"/>
					<stop  offset="1" style="stop-color:#8F8F8F"/>
				</linearGradient>
				<path style="fill:url(#SVGID_00000170269797091069080390000014209055580274689664_);" d="M137.826,57.313
					c-9.877,7.127-19.103,14.4-27.596,21.796c1.604,4.126,3.086,8.266,4.45,12.418C121.708,80.069,129.423,68.659,137.826,57.313z"
					/>
				
					<linearGradient id="SVGID_00000119118868863265632990000009063892388109695889_" gradientUnits="userSpaceOnUse" x1="-654.0186" y1="430.8364" x2="-653.7087" y2="430.5265" gradientTransform="matrix(-99.9249 0 0 -124.2553 -65215.9922 53620.1211)">
					<stop  offset="0" style="stop-color:#FFFFFF"/>
					<stop  offset="1" style="stop-color:#C0C0C0"/>
				</linearGradient>
				<path style="fill:url(#SVGID_00000119118868863265632990000009063892388109695889_);" d="M144,97.532
					c-9.658-2.205-19.433-4.217-29.319-6.006c2.691,10.175,4.697,20.396,6.082,30.624c7.133-7.589,14.899-15.065,23.237-22.411
					V97.532z"/>
				
					<linearGradient id="SVGID_00000029031901881823041830000009199039441940034479_" gradientUnits="userSpaceOnUse" x1="-652.5681" y1="431.6804" x2="-652.2902" y2="431.4026" gradientTransform="matrix(-131.1514 0 0 -140.9819 -85427.5078 60918.4922)">
					<stop  offset="0" style="stop-color:#7D7D7D"/>
					<stop  offset="1" style="stop-color:#FFFFFF"/>
				</linearGradient>
				<path style="fill:url(#SVGID_00000029031901881823041830000009199039441940034479_);" d="M144,84.311
					c-1.561-9.012-3.606-18.02-6.174-26.998c-8.403,11.347-16.118,22.757-23.146,34.214c9.887,1.789,19.661,3.801,29.319,6.006
					V84.311z"/>
				
					<linearGradient id="SVGID_00000072988278168448738120000006208305761681063335_" gradientUnits="userSpaceOnUse" x1="-657.1564" y1="431.2668" x2="-656.973" y2="431.0833" gradientTransform="matrix(-105.1293 0 0 -125.4501 -69074.2656 54110.7891)">
					<stop  offset="0" style="stop-color:#FFFFFF"/>
					<stop  offset="1" style="stop-color:#DDDDDD"/>
				</linearGradient>
				<path style="fill:url(#SVGID_00000072988278168448738120000006208305761681063335_);" d="M0,7.065v31.478
					c5.359-7.751,11.282-15.533,17.832-23.312C12.049,12.388,6.091,9.676,0,7.065z"/>
			</g>
		</g>
	</g>
</g>
</svg>
